# xmcd CD database file
#
# Track frame offsets:
#	150
#	21095
#	47774
#	70040
#	98373
#	119382
#	141911
#	168315
#	189368
#	203054
#	232809
#	255484
#	272137
#
# Disc length: 3980 seconds
#
# Revision: 0
# Processed by: cddbd v1.5.2PL0 Copyright (c) Steve Scherf et al.
# Submitted via: CDex 1.70beta2
#
DISCID=a60f8a0d
DTITLE=그림 - Special
DYEAR=2008
DGENRE=New Age
TTITLE0=도라지 - DoRaJi
TTITLE1=아침풍경 - Morning Scenery
TTITLE2=비뭍은 바람 - Wind with a touch of rain drops
TTITLE3=날으는 밤나무 - Flying Chestnut Tree
TTITLE4=Twilight
TTITLE5=Prism
TTITLE6=비, 달리다 - Rain Runs
TTITLE7=여름잠 - Summer Dream
TTITLE8=나의 첫 번째 자전거 - My First Bicycle
TTITLE9=가객 - Imjae and Hanwoo
TTITLE10=산책 - Awalk
TTITLE11=Spring Dance
TTITLE12=Pan Project II
EXTD=YEAR: 2008
EXTT0=
EXTT1=
EXTT2=
EXTT3=
EXTT4=
EXTT5=
EXTT6=
EXTT7=
EXTT8=
EXTT9=
EXTT10=
EXTT11=
EXTT12=
PLAYORDER=
